<svg width="335" height="139" viewBox="0 0 335 139" fill="none" xmlns="http://www.w3.org/2000/svg">
<path d="M27 13H7M7 11.8L7 20.2C7 21.8802 7 22.7202 7.32698 23.362C7.6146 23.9265 8.07354 24.3854 8.63803 24.673C9.27976 25 10.1198 25 11.8 25H22.2C23.8802 25 24.7202 25 25.362 24.673C25.9265 24.3854 26.3854 23.9265 26.673 23.362C27 22.7202 27 21.8802 27 20.2V11.8C27 10.1198 27 9.27977 26.673 8.63803C26.3854 8.07354 25.9265 7.6146 25.362 7.32698C24.7202 7 23.8802 7 22.2 7L11.8 7C10.1198 7 9.27976 7 8.63803 7.32698C8.07354 7.6146 7.6146 8.07354 7.32698 8.63803C7 9.27976 7 10.1198 7 11.8Z" stroke="#D4D4D4" stroke-width="2" stroke-linecap="round" stroke-linejoin="round"/>
<path d="M230 14.5L229.526 10.7046C229.34 9.21602 229.246 8.47169 228.896 7.9108C228.587 7.41662 228.142 7.02301 227.613 6.77804C227.013 6.5 226.263 6.5 224.763 6.5H215.237C213.737 6.5 212.987 6.5 212.387 6.77804C211.858 7.02301 211.413 7.41662 211.104 7.9108C210.754 8.47169 210.66 9.21601 210.474 10.7046L210 14.5M213.5 18.5H226.5M213.5 18.5C211.567 18.5 210 16.933 210 15C210 13.067 211.567 11.5 213.5 11.5H226.5C228.433 11.5 230 13.067 230 15C230 16.933 228.433 18.5 226.5 18.5M213.5 18.5C211.567 18.5 210 20.067 210 22C210 23.933 211.567 25.5 213.5 25.5H226.5C228.433 25.5 230 23.933 230 22C230 20.067 228.433 18.5 226.5 18.5M214 15H214.01M214 22H214.01M220 15H226M220 22H226" stroke="#D4D4D4" stroke-width="2" stroke-linecap="round" stroke-linejoin="round"/>
<rect x="1" y="1" width="61" height="119" rx="4" stroke="#D4D4D4" stroke-width="2"/>
<rect x="204" y="1" width="125" height="119" rx="4" stroke="#D4D4D4" stroke-width="2"/>
<path d="M68.0568 57V48.2727H71.0057C71.6875 48.2727 72.2472 48.3892 72.6847 48.6222C73.1222 48.8523 73.446 49.169 73.6562 49.5724C73.8665 49.9759 73.9716 50.4347 73.9716 50.9489C73.9716 51.4631 73.8665 51.919 73.6562 52.3168C73.446 52.7145 73.1236 53.027 72.6889 53.2543C72.2543 53.4787 71.6989 53.5909 71.0227 53.5909H68.6364V52.6364H70.9886C71.4545 52.6364 71.8295 52.5682 72.1136 52.4318C72.4006 52.2955 72.608 52.1023 72.7358 51.8523C72.8665 51.5994 72.9318 51.2983 72.9318 50.9489C72.9318 50.5994 72.8665 50.294 72.7358 50.0327C72.6051 49.7713 72.3963 49.5696 72.1094 49.4276C71.8224 49.2827 71.4432 49.2102 70.9716 49.2102H69.1136V57H68.0568ZM72.1648 53.0795L74.3125 57H73.0852L70.9716 53.0795H72.1648ZM75.7326 57V48.2727H80.9996V49.2102H76.7894V52.1591H80.7269V53.0966H76.7894V56.0625H81.0678V57H75.7326ZM87.6772 50.4545C87.6261 50.0227 87.4187 49.6875 87.055 49.4489C86.6914 49.2102 86.2454 49.0909 85.717 49.0909C85.3306 49.0909 84.9925 49.1534 84.7028 49.2784C84.4158 49.4034 84.1914 49.5753 84.0295 49.794C83.8704 50.0128 83.7908 50.2614 83.7908 50.5398C83.7908 50.7727 83.8462 50.973 83.957 51.1406C84.0707 51.3054 84.2156 51.4432 84.3917 51.554C84.5678 51.6619 84.7525 51.7514 84.9457 51.8224C85.1388 51.8906 85.3164 51.946 85.4783 51.9886L86.3647 52.2273C86.592 52.2869 86.8448 52.3693 87.1232 52.4744C87.4045 52.5795 87.6729 52.723 87.9286 52.9048C88.1871 53.0838 88.4002 53.3139 88.5678 53.5952C88.7354 53.8764 88.8192 54.2216 88.8192 54.6307C88.8192 55.1023 88.6957 55.5284 88.4485 55.9091C88.2042 56.2898 87.8462 56.5923 87.3746 56.8168C86.9059 57.0412 86.3363 57.1534 85.6658 57.1534C85.0408 57.1534 84.4996 57.0526 84.0423 56.8509C83.5877 56.6491 83.2298 56.3679 82.9684 56.0071C82.7099 55.6463 82.5636 55.2273 82.5295 54.75H83.6204C83.6488 55.0795 83.7596 55.3523 83.9528 55.5682C84.1488 55.7812 84.396 55.9403 84.6942 56.0455C84.9954 56.1477 85.3192 56.1989 85.6658 56.1989C86.0692 56.1989 86.4315 56.1335 86.7525 56.0028C87.0735 55.8693 87.3278 55.6847 87.5153 55.4489C87.7028 55.2102 87.7965 54.9318 87.7965 54.6136C87.7965 54.3239 87.7156 54.0881 87.5536 53.9062C87.3917 53.7244 87.1786 53.5767 86.9144 53.4631C86.6502 53.3494 86.3647 53.25 86.0579 53.1648L84.984 52.858C84.3022 52.6619 83.7624 52.3821 83.3647 52.0185C82.967 51.6548 82.7681 51.179 82.7681 50.5909C82.7681 50.1023 82.9002 49.6761 83.1644 49.3125C83.4315 48.946 83.7894 48.6619 84.2383 48.4602C84.69 48.2557 85.1942 48.1534 85.7511 48.1534C86.3136 48.1534 86.8136 48.2543 87.2511 48.456C87.6886 48.6548 88.0352 48.9276 88.2908 49.2741C88.5494 49.6207 88.6857 50.0142 88.6999 50.4545H87.6772ZM90.0795 49.2102V48.2727H96.625V49.2102H93.8807V57H92.8239V49.2102H90.0795ZM101.989 57H100.881L104.086 48.2727H105.176L108.381 57H107.273L104.665 49.6534H104.597L101.989 57ZM102.398 53.5909H106.864V54.5284H102.398V53.5909ZM109.74 57V48.2727H112.689C113.374 48.2727 113.934 48.3963 114.368 48.6435C114.806 48.8878 115.13 49.2188 115.34 49.6364C115.55 50.054 115.655 50.5199 115.655 51.0341C115.655 51.5483 115.55 52.0156 115.34 52.4361C115.132 52.8565 114.811 53.1918 114.377 53.4418C113.942 53.6889 113.385 53.8125 112.706 53.8125H110.593V52.875H112.672C113.141 52.875 113.517 52.794 113.801 52.6321C114.086 52.4702 114.292 52.2514 114.419 51.9759C114.55 51.6974 114.615 51.3835 114.615 51.0341C114.615 50.6847 114.55 50.3722 114.419 50.0966C114.292 49.821 114.084 49.6051 113.797 49.4489C113.51 49.2898 113.13 49.2102 112.655 49.2102H110.797V57H109.74ZM118.414 48.2727V57H117.358V48.2727H118.414ZM69.642 74L67.2557 65.2727H68.3295L70.1534 72.3807H70.2386L72.0966 65.2727H73.2898L75.1477 72.3807H75.233L77.0568 65.2727H78.1307L75.7443 74H74.6534L72.7273 67.0455H72.6591L70.733 74H69.642ZM81.446 74.1364C80.8153 74.1364 80.2713 73.9972 79.8139 73.7188C79.3594 73.4375 79.0085 73.0455 78.7614 72.5426C78.517 72.0369 78.3949 71.4489 78.3949 70.7784C78.3949 70.108 78.517 69.517 78.7614 69.0057C79.0085 68.4915 79.3523 68.0909 79.7926 67.804C80.2358 67.5142 80.7528 67.3693 81.3438 67.3693C81.6847 67.3693 82.0213 67.4261 82.3537 67.5398C82.6861 67.6534 82.9886 67.8381 83.2614 68.0938C83.5341 68.3466 83.7514 68.6818 83.9134 69.0994C84.0753 69.517 84.1562 70.0312 84.1562 70.642V71.0682H79.1108V70.1989H83.1335C83.1335 69.8295 83.0597 69.5 82.9119 69.2102C82.767 68.9205 82.5597 68.6918 82.2898 68.5241C82.0227 68.3565 81.7074 68.2727 81.3438 68.2727C80.9432 68.2727 80.5966 68.3722 80.304 68.571C80.0142 68.767 79.7912 69.0227 79.6349 69.3381C79.4787 69.6534 79.4006 69.9915 79.4006 70.3523V70.9318C79.4006 71.4261 79.4858 71.8452 79.6562 72.1889C79.8295 72.5298 80.0696 72.7898 80.3764 72.9688C80.6832 73.1449 81.0398 73.233 81.446 73.233C81.7102 73.233 81.9489 73.196 82.1619 73.1222C82.3778 73.0455 82.5639 72.9318 82.7202 72.7812C82.8764 72.6278 82.9972 72.4375 83.0824 72.2102L84.054 72.483C83.9517 72.8125 83.7798 73.1023 83.5384 73.3523C83.2969 73.5994 82.9986 73.7926 82.6435 73.9318C82.2884 74.0682 81.8892 74.1364 81.446 74.1364ZM85.8224 74V65.2727H86.8281V68.4943H86.9134C86.9872 68.3807 87.0895 68.2358 87.2202 68.0597C87.3537 67.8807 87.544 67.7216 87.7912 67.5824C88.0412 67.4403 88.3793 67.3693 88.8054 67.3693C89.3565 67.3693 89.8423 67.5071 90.2628 67.7827C90.6832 68.0582 91.0114 68.4489 91.2472 68.9545C91.483 69.4602 91.6009 70.0568 91.6009 70.7443C91.6009 71.4375 91.483 72.0384 91.2472 72.5469C91.0114 73.0526 90.6847 73.4446 90.267 73.723C89.8494 73.9986 89.3679 74.1364 88.8224 74.1364C88.402 74.1364 88.0653 74.0668 87.8125 73.9276C87.5597 73.7855 87.3651 73.625 87.2287 73.446C87.0923 73.2642 86.9872 73.1136 86.9134 72.9943H86.794V74H85.8224ZM86.8111 70.7273C86.8111 71.2216 86.8835 71.6577 87.0284 72.0355C87.1733 72.4105 87.3849 72.7045 87.6634 72.9176C87.9418 73.1278 88.2827 73.233 88.6861 73.233C89.1065 73.233 89.4574 73.1222 89.7386 72.9006C90.0227 72.6761 90.2358 72.375 90.3778 71.9972C90.5227 71.6165 90.5952 71.1932 90.5952 70.7273C90.5952 70.267 90.5241 69.8523 90.3821 69.483C90.2429 69.1108 90.0313 68.8168 89.7472 68.6009C89.4659 68.3821 89.1122 68.2727 88.6861 68.2727C88.277 68.2727 87.9332 68.3764 87.6548 68.5838C87.3764 68.7884 87.1662 69.0753 87.0241 69.4446C86.8821 69.8111 86.8111 70.2386 86.8111 70.7273ZM98.0483 67.4545C97.9972 67.0227 97.7898 66.6875 97.4261 66.4489C97.0625 66.2102 96.6165 66.0909 96.0881 66.0909C95.7017 66.0909 95.3636 66.1534 95.0739 66.2784C94.7869 66.4034 94.5625 66.5753 94.4006 66.794C94.2415 67.0128 94.1619 67.2614 94.1619 67.5398C94.1619 67.7727 94.2173 67.973 94.3281 68.1406C94.4418 68.3054 94.5866 68.4432 94.7628 68.554C94.9389 68.6619 95.1236 68.7514 95.3168 68.8224C95.5099 68.8906 95.6875 68.946 95.8494 68.9886L96.7358 69.2273C96.9631 69.2869 97.2159 69.3693 97.4943 69.4744C97.7756 69.5795 98.044 69.723 98.2997 69.9048C98.5582 70.0838 98.7713 70.3139 98.9389 70.5952C99.1065 70.8764 99.1903 71.2216 99.1903 71.6307C99.1903 72.1023 99.0668 72.5284 98.8196 72.9091C98.5753 73.2898 98.2173 73.5923 97.7457 73.8168C97.277 74.0412 96.7074 74.1534 96.0369 74.1534C95.4119 74.1534 94.8707 74.0526 94.4134 73.8509C93.9588 73.6491 93.6009 73.3679 93.3395 73.0071C93.081 72.6463 92.9347 72.2273 92.9006 71.75H93.9915C94.0199 72.0795 94.1307 72.3523 94.3239 72.5682C94.5199 72.7812 94.767 72.9403 95.0653 73.0455C95.3665 73.1477 95.6903 73.1989 96.0369 73.1989C96.4403 73.1989 96.8026 73.1335 97.1236 73.0028C97.4446 72.8693 97.6989 72.6847 97.8864 72.4489C98.0739 72.2102 98.1676 71.9318 98.1676 71.6136C98.1676 71.3239 98.0866 71.0881 97.9247 70.9062C97.7628 70.7244 97.5497 70.5767 97.2855 70.4631C97.0213 70.3494 96.7358 70.25 96.429 70.1648L95.3551 69.858C94.6733 69.6619 94.1335 69.3821 93.7358 69.0185C93.3381 68.6548 93.1392 68.179 93.1392 67.5909C93.1392 67.1023 93.2713 66.6761 93.5355 66.3125C93.8026 65.946 94.1605 65.6619 94.6094 65.4602C95.0611 65.2557 95.5653 65.1534 96.1222 65.1534C96.6847 65.1534 97.1847 65.2543 97.6222 65.456C98.0597 65.6548 98.4063 65.9276 98.6619 66.2741C98.9205 66.6207 99.0568 67.0142 99.071 67.4545H98.0483ZM103.451 74.1364C102.86 74.1364 102.341 73.9957 101.895 73.7145C101.452 73.4332 101.105 73.0398 100.855 72.5341C100.608 72.0284 100.485 71.4375 100.485 70.7614C100.485 70.0795 100.608 69.4844 100.855 68.9759C101.105 68.4673 101.452 68.0724 101.895 67.7912C102.341 67.5099 102.86 67.3693 103.451 67.3693C104.042 67.3693 104.559 67.5099 105.002 67.7912C105.448 68.0724 105.794 68.4673 106.042 68.9759C106.292 69.4844 106.417 70.0795 106.417 70.7614C106.417 71.4375 106.292 72.0284 106.042 72.5341C105.794 73.0398 105.448 73.4332 105.002 73.7145C104.559 73.9957 104.042 74.1364 103.451 74.1364ZM103.451 73.233C103.9 73.233 104.269 73.1179 104.559 72.8878C104.848 72.6577 105.063 72.3551 105.202 71.9801C105.341 71.6051 105.411 71.1989 105.411 70.7614C105.411 70.3239 105.341 69.9162 105.202 69.5384C105.063 69.1605 104.848 68.8551 104.559 68.6222C104.269 68.3892 103.9 68.2727 103.451 68.2727C103.002 68.2727 102.632 68.3892 102.343 68.6222C102.053 68.8551 101.838 69.1605 101.699 69.5384C101.56 69.9162 101.49 70.3239 101.49 70.7614C101.49 71.1989 101.56 71.6051 101.699 71.9801C101.838 72.3551 102.053 72.6577 102.343 72.8878C102.632 73.1179 103.002 73.233 103.451 73.233ZM110.611 74.1364C109.997 74.1364 109.469 73.9915 109.026 73.7017C108.582 73.4119 108.241 73.0128 108.003 72.5043C107.764 71.9957 107.645 71.4148 107.645 70.7614C107.645 70.0966 107.767 69.5099 108.011 69.0014C108.259 68.4901 108.602 68.0909 109.043 67.804C109.486 67.5142 110.003 67.3693 110.594 67.3693C111.054 67.3693 111.469 67.4545 111.838 67.625C112.207 67.7955 112.51 68.0341 112.746 68.3409C112.982 68.6477 113.128 69.0057 113.185 69.4148H112.179C112.102 69.1165 111.932 68.8523 111.668 68.6222C111.406 68.3892 111.054 68.2727 110.611 68.2727C110.219 68.2727 109.875 68.375 109.58 68.5795C109.287 68.7812 109.058 69.0668 108.893 69.4361C108.732 69.8026 108.651 70.233 108.651 70.7273C108.651 71.233 108.73 71.6733 108.889 72.0483C109.051 72.4233 109.278 72.7145 109.571 72.9219C109.866 73.1293 110.213 73.233 110.611 73.233C110.872 73.233 111.109 73.1875 111.322 73.0966C111.536 73.0057 111.716 72.875 111.864 72.7045C112.011 72.5341 112.116 72.3295 112.179 72.0909H113.185C113.128 72.4773 112.987 72.8253 112.763 73.1349C112.541 73.4418 112.247 73.6861 111.881 73.8679C111.517 74.0469 111.094 74.1364 110.611 74.1364ZM115.592 71.6136L115.575 70.3693H115.78L118.643 67.4545H119.888L116.837 70.5398H116.751L115.592 71.6136ZM114.655 74V65.2727H115.661V74H114.655ZM118.814 74L116.257 70.7614L116.973 70.0625L120.092 74H118.814ZM123.657 74.1364C123.026 74.1364 122.482 73.9972 122.025 73.7188C121.57 73.4375 121.219 73.0455 120.972 72.5426C120.728 72.0369 120.606 71.4489 120.606 70.7784C120.606 70.108 120.728 69.517 120.972 69.0057C121.219 68.4915 121.563 68.0909 122.004 67.804C122.447 67.5142 122.964 67.3693 123.555 67.3693C123.896 67.3693 124.232 67.4261 124.565 67.5398C124.897 67.6534 125.2 67.8381 125.472 68.0938C125.745 68.3466 125.962 68.6818 126.124 69.0994C126.286 69.517 126.367 70.0312 126.367 70.642V71.0682H121.322V70.1989H125.344C125.344 69.8295 125.271 69.5 125.123 69.2102C124.978 68.9205 124.771 68.6918 124.501 68.5241C124.234 68.3565 123.918 68.2727 123.555 68.2727C123.154 68.2727 122.808 68.3722 122.515 68.571C122.225 68.767 122.002 69.0227 121.846 69.3381C121.69 69.6534 121.612 69.9915 121.612 70.3523V70.9318C121.612 71.4261 121.697 71.8452 121.867 72.1889C122.04 72.5298 122.281 72.7898 122.587 72.9688C122.894 73.1449 123.251 73.233 123.657 73.233C123.921 73.233 124.16 73.196 124.373 73.1222C124.589 73.0455 124.775 72.9318 124.931 72.7812C125.087 72.6278 125.208 72.4375 125.293 72.2102L126.265 72.483C126.163 72.8125 125.991 73.1023 125.749 73.3523C125.508 73.5994 125.21 73.7926 124.854 73.9318C124.499 74.0682 124.1 74.1364 123.657 74.1364ZM130.744 67.4545V68.3068H127.352V67.4545H130.744ZM128.34 65.8864H129.346V72.125C129.346 72.4091 129.387 72.6222 129.469 72.7642C129.555 72.9034 129.663 72.9972 129.793 73.0455C129.927 73.0909 130.067 73.1136 130.215 73.1136C130.326 73.1136 130.417 73.108 130.488 73.0966C130.559 73.0824 130.616 73.071 130.658 73.0625L130.863 73.9659C130.795 73.9915 130.7 74.017 130.577 74.0426C130.455 74.071 130.3 74.0852 130.113 74.0852C129.829 74.0852 129.55 74.0241 129.278 73.902C129.008 73.7798 128.783 73.5938 128.604 73.3438C128.428 73.0938 128.34 72.7784 128.34 72.3977V65.8864ZM136.776 68.9205L135.872 69.1761C135.815 69.0256 135.732 68.8793 135.621 68.7372C135.513 68.5923 135.365 68.473 135.178 68.3793C134.99 68.2855 134.75 68.2386 134.457 68.2386C134.057 68.2386 133.723 68.331 133.456 68.5156C133.192 68.6974 133.06 68.929 133.06 69.2102C133.06 69.4602 133.151 69.6577 133.332 69.8026C133.514 69.9474 133.798 70.0682 134.185 70.1648L135.156 70.4034C135.741 70.5455 136.178 70.7628 136.464 71.0554C136.751 71.3452 136.895 71.7187 136.895 72.1761C136.895 72.5511 136.787 72.8864 136.571 73.1818C136.358 73.4773 136.06 73.7102 135.676 73.8807C135.293 74.0511 134.847 74.1364 134.338 74.1364C133.67 74.1364 133.118 73.9915 132.68 73.7017C132.243 73.4119 131.966 72.9886 131.849 72.4318L132.804 72.1932C132.895 72.5455 133.067 72.8097 133.32 72.9858C133.575 73.1619 133.909 73.25 134.321 73.25C134.79 73.25 135.162 73.1506 135.438 72.9517C135.716 72.75 135.855 72.5085 135.855 72.2273C135.855 72 135.776 71.8097 135.616 71.6562C135.457 71.5 135.213 71.3835 134.884 71.3068L133.793 71.0511C133.193 70.9091 132.753 70.6889 132.472 70.3906C132.193 70.0895 132.054 69.7131 132.054 69.2614C132.054 68.892 132.158 68.5653 132.365 68.2812C132.575 67.9972 132.861 67.7741 133.222 67.6122C133.585 67.4503 133.997 67.3693 134.457 67.3693C135.105 67.3693 135.614 67.5114 135.983 67.7955C136.355 68.0795 136.619 68.4545 136.776 68.9205Z" fill="#D4D4D4"/>
<rect x="20" y="114" width="22" height="2" rx="1" fill="#D4D4D4"/>
<path d="M203.707 61.7071C204.098 61.3166 204.098 60.6834 203.707 60.2929L197.343 53.9289C196.953 53.5384 196.319 53.5384 195.929 53.9289C195.538 54.3195 195.538 54.9526 195.929 55.3431L201.586 61L195.929 66.6569C195.538 67.0474 195.538 67.6805 195.929 68.0711C196.319 68.4616 196.953 68.4616 197.343 68.0711L203.707 61.7071ZM63 61V62H203V61V60H63V61Z" fill="#D4D4D4"/>
<path d="M201.58 136.136C200.966 136.136 200.438 135.991 199.994 135.702C199.551 135.412 199.21 135.013 198.972 134.504C198.733 133.996 198.614 133.415 198.614 132.761C198.614 132.097 198.736 131.51 198.98 131.001C199.227 130.49 199.571 130.091 200.011 129.804C200.455 129.514 200.972 129.369 201.562 129.369C202.023 129.369 202.438 129.455 202.807 129.625C203.176 129.795 203.479 130.034 203.714 130.341C203.95 130.648 204.097 131.006 204.153 131.415H203.148C203.071 131.116 202.901 130.852 202.636 130.622C202.375 130.389 202.023 130.273 201.58 130.273C201.188 130.273 200.844 130.375 200.548 130.58C200.256 130.781 200.027 131.067 199.862 131.436C199.7 131.803 199.619 132.233 199.619 132.727C199.619 133.233 199.699 133.673 199.858 134.048C200.02 134.423 200.247 134.714 200.54 134.922C200.835 135.129 201.182 135.233 201.58 135.233C201.841 135.233 202.078 135.188 202.291 135.097C202.504 135.006 202.685 134.875 202.832 134.705C202.98 134.534 203.085 134.33 203.148 134.091H204.153C204.097 134.477 203.956 134.825 203.732 135.135C203.51 135.442 203.216 135.686 202.849 135.868C202.486 136.047 202.063 136.136 201.58 136.136ZM206.271 138.455C206.101 138.455 205.949 138.44 205.815 138.412C205.682 138.386 205.589 138.361 205.538 138.335L205.794 137.449C206.038 137.511 206.254 137.534 206.442 137.517C206.629 137.5 206.795 137.416 206.94 137.266C207.088 137.118 207.223 136.878 207.345 136.545L207.533 136.034L205.112 129.455H206.203L208.01 134.67H208.078L209.885 129.455H210.976L208.197 136.955C208.072 137.293 207.918 137.572 207.733 137.794C207.548 138.018 207.334 138.185 207.089 138.293C206.848 138.401 206.575 138.455 206.271 138.455ZM221.235 135.062L221.116 137.875H220.076V136H219.224V135.062H221.235ZM212.303 129.455H213.309V135.062H215.781V129.455H216.786V135.062H219.258V129.455H220.263V136H212.303V129.455ZM225.372 136.136C224.741 136.136 224.197 135.997 223.74 135.719C223.285 135.438 222.934 135.045 222.687 134.543C222.443 134.037 222.321 133.449 222.321 132.778C222.321 132.108 222.443 131.517 222.687 131.006C222.934 130.491 223.278 130.091 223.718 129.804C224.162 129.514 224.679 129.369 225.27 129.369C225.61 129.369 225.947 129.426 226.279 129.54C226.612 129.653 226.914 129.838 227.187 130.094C227.46 130.347 227.677 130.682 227.839 131.099C228.001 131.517 228.082 132.031 228.082 132.642V133.068H223.037V132.199H227.059C227.059 131.83 226.985 131.5 226.838 131.21C226.693 130.92 226.485 130.692 226.216 130.524C225.949 130.357 225.633 130.273 225.27 130.273C224.869 130.273 224.522 130.372 224.23 130.571C223.94 130.767 223.717 131.023 223.561 131.338C223.404 131.653 223.326 131.991 223.326 132.352V132.932C223.326 133.426 223.412 133.845 223.582 134.189C223.755 134.53 223.995 134.79 224.302 134.969C224.609 135.145 224.966 135.233 225.372 135.233C225.636 135.233 225.875 135.196 226.088 135.122C226.304 135.045 226.49 134.932 226.646 134.781C226.802 134.628 226.923 134.437 227.008 134.21L227.98 134.483C227.877 134.812 227.706 135.102 227.464 135.352C227.223 135.599 226.924 135.793 226.569 135.932C226.214 136.068 225.815 136.136 225.372 136.136ZM232.271 136.136C231.657 136.136 231.129 135.991 230.686 135.702C230.243 135.412 229.902 135.013 229.663 134.504C229.424 133.996 229.305 133.415 229.305 132.761C229.305 132.097 229.427 131.51 229.672 131.001C229.919 130.49 230.262 130.091 230.703 129.804C231.146 129.514 231.663 129.369 232.254 129.369C232.714 129.369 233.129 129.455 233.498 129.625C233.868 129.795 234.17 130.034 234.406 130.341C234.642 130.648 234.788 131.006 234.845 131.415H233.839C233.762 131.116 233.592 130.852 233.328 130.622C233.066 130.389 232.714 130.273 232.271 130.273C231.879 130.273 231.535 130.375 231.24 130.58C230.947 130.781 230.718 131.067 230.554 131.436C230.392 131.803 230.311 132.233 230.311 132.727C230.311 133.233 230.39 133.673 230.549 134.048C230.711 134.423 230.939 134.714 231.231 134.922C231.527 135.129 231.873 135.233 232.271 135.233C232.532 135.233 232.77 135.188 232.983 135.097C233.196 135.006 233.376 134.875 233.524 134.705C233.672 134.534 233.777 134.33 233.839 134.091H234.845C234.788 134.477 234.647 134.825 234.423 135.135C234.201 135.442 233.907 135.686 233.541 135.868C233.177 136.047 232.754 136.136 232.271 136.136ZM235.799 130.392V129.455H241.118V130.392H238.97V136H237.964V130.392H235.799ZM242.585 136V129.455H245.261C245.965 129.455 246.525 129.614 246.94 129.932C247.354 130.25 247.562 130.67 247.562 131.193C247.562 131.591 247.444 131.899 247.208 132.118C246.972 132.334 246.67 132.48 246.3 132.557C246.542 132.591 246.776 132.676 247.004 132.812C247.234 132.949 247.424 133.136 247.575 133.375C247.725 133.611 247.8 133.901 247.8 134.244C247.8 134.58 247.715 134.879 247.545 135.143C247.374 135.408 247.13 135.616 246.812 135.77C246.494 135.923 246.113 136 245.67 136H242.585ZM243.539 135.08H245.67C246.016 135.08 246.288 134.997 246.484 134.832C246.68 134.668 246.778 134.443 246.778 134.159C246.778 133.821 246.68 133.555 246.484 133.362C246.288 133.166 246.016 133.068 245.67 133.068H243.539V135.08ZM243.539 132.199H245.261C245.531 132.199 245.762 132.162 245.955 132.088C246.148 132.011 246.296 131.903 246.398 131.764C246.504 131.622 246.556 131.455 246.556 131.261C246.556 130.986 246.441 130.77 246.211 130.614C245.981 130.455 245.664 130.375 245.261 130.375H243.539V132.199ZM249.971 138.455C249.8 138.455 249.648 138.44 249.515 138.412C249.381 138.386 249.289 138.361 249.238 138.335L249.493 137.449C249.738 137.511 249.953 137.534 250.141 137.517C250.328 137.5 250.495 137.416 250.64 137.266C250.787 137.118 250.922 136.878 251.044 136.545L251.232 136.034L248.811 129.455H249.902L251.709 134.67H251.777L253.584 129.455H254.675L251.897 136.955C251.772 137.293 251.617 137.572 251.432 137.794C251.248 138.018 251.033 138.185 250.789 138.293C250.547 138.401 250.275 138.455 249.971 138.455ZM259.139 132.318V133.256H255.679V132.318H259.139ZM256.531 129.455V136H255.525V129.455H256.531ZM261.15 136.136C260.559 136.136 260.041 135.996 259.595 135.714C259.152 135.433 258.805 135.04 258.555 134.534C258.308 134.028 258.184 133.437 258.184 132.761C258.184 132.08 258.308 131.484 258.555 130.976C258.805 130.467 259.152 130.072 259.595 129.791C260.041 129.51 260.559 129.369 261.15 129.369C261.741 129.369 262.258 129.51 262.701 129.791C263.147 130.072 263.494 130.467 263.741 130.976C263.991 131.484 264.116 132.08 264.116 132.761C264.116 133.437 263.991 134.028 263.741 134.534C263.494 135.04 263.147 135.433 262.701 135.714C262.258 135.996 261.741 136.136 261.15 136.136ZM261.15 135.233C261.599 135.233 261.968 135.118 262.258 134.888C262.548 134.658 262.762 134.355 262.902 133.98C263.041 133.605 263.11 133.199 263.11 132.761C263.11 132.324 263.041 131.916 262.902 131.538C262.762 131.161 262.548 130.855 262.258 130.622C261.968 130.389 261.599 130.273 261.15 130.273C260.701 130.273 260.332 130.389 260.042 130.622C259.752 130.855 259.538 131.161 259.399 131.538C259.26 131.916 259.19 132.324 259.19 132.761C259.19 133.199 259.26 133.605 259.399 133.98C259.538 134.355 259.752 134.658 260.042 134.888C260.332 135.118 260.701 135.233 261.15 135.233ZM274.684 135.062L274.565 137.875H273.525V136H272.673V135.062H274.684ZM265.752 129.455H266.758V135.062H269.23V129.455H270.235V135.062H272.707V129.455H273.713V136H265.752V129.455ZM277.153 134.517L280.306 129.455H281.465V136H280.46V130.938L277.323 136H276.147V129.455H277.153V134.517ZM284.313 134.517L287.466 129.455H288.625V136H287.62V130.938L284.483 136H283.307V129.455H284.313V134.517ZM286.801 127.273H287.739C287.739 127.733 287.58 128.109 287.262 128.402C286.944 128.695 286.512 128.841 285.966 128.841C285.429 128.841 285.002 128.695 284.684 128.402C284.368 128.109 284.211 127.733 284.211 127.273H285.148C285.148 127.494 285.209 127.689 285.331 127.857C285.456 128.024 285.668 128.108 285.966 128.108C286.265 128.108 286.478 128.024 286.605 127.857C286.736 127.689 286.801 127.494 286.801 127.273ZM298.7 127L299.212 127.614C299.013 127.807 298.783 127.942 298.521 128.018C298.26 128.095 297.964 128.142 297.635 128.159C297.305 128.176 296.939 128.193 296.536 128.21C296.081 128.227 295.705 128.338 295.406 128.543C295.108 128.747 294.878 129.043 294.716 129.429C294.554 129.815 294.45 130.29 294.405 130.852H294.49C294.712 130.443 295.018 130.142 295.411 129.949C295.803 129.756 296.223 129.659 296.672 129.659C297.183 129.659 297.643 129.778 298.053 130.017C298.462 130.256 298.786 130.609 299.024 131.078C299.263 131.547 299.382 132.125 299.382 132.812C299.382 133.497 299.26 134.088 299.016 134.585C298.774 135.082 298.435 135.466 297.997 135.736C297.563 136.003 297.053 136.136 296.467 136.136C295.882 136.136 295.369 135.999 294.929 135.723C294.489 135.445 294.146 135.033 293.902 134.487C293.658 133.939 293.536 133.261 293.536 132.455V131.756C293.536 130.298 293.783 129.193 294.277 128.44C294.774 127.687 295.521 127.298 296.518 127.273C296.871 127.261 297.185 127.259 297.46 127.264C297.736 127.27 297.976 127.257 298.18 127.226C298.385 127.195 298.558 127.119 298.7 127ZM296.467 135.233C296.862 135.233 297.202 135.134 297.486 134.935C297.773 134.736 297.993 134.456 298.146 134.095C298.3 133.732 298.376 133.304 298.376 132.812C298.376 132.335 298.298 131.929 298.142 131.594C297.989 131.259 297.768 131.003 297.482 130.827C297.195 130.651 296.851 130.562 296.45 130.562C296.158 130.562 295.895 130.612 295.662 130.712C295.429 130.811 295.23 130.957 295.065 131.151C294.901 131.344 294.773 131.58 294.682 131.858C294.594 132.136 294.547 132.455 294.541 132.812C294.541 133.545 294.713 134.132 295.057 134.572C295.401 135.013 295.871 135.233 296.467 135.233ZM302.847 136.153C302.432 136.153 302.055 136.075 301.717 135.919C301.379 135.76 301.111 135.531 300.912 135.233C300.713 134.932 300.614 134.568 300.614 134.142C300.614 133.767 300.688 133.463 300.835 133.23C300.983 132.994 301.18 132.81 301.428 132.676C301.675 132.543 301.947 132.443 302.246 132.378C302.547 132.31 302.849 132.256 303.153 132.216C303.551 132.165 303.874 132.126 304.121 132.101C304.371 132.072 304.553 132.026 304.666 131.96C304.783 131.895 304.841 131.781 304.841 131.619V131.585C304.841 131.165 304.726 130.838 304.496 130.605C304.268 130.372 303.923 130.256 303.46 130.256C302.98 130.256 302.604 130.361 302.331 130.571C302.058 130.781 301.866 131.006 301.756 131.244L300.801 130.903C300.972 130.506 301.199 130.196 301.483 129.974C301.77 129.75 302.082 129.594 302.42 129.506C302.761 129.415 303.097 129.369 303.426 129.369C303.636 129.369 303.878 129.395 304.151 129.446C304.426 129.494 304.692 129.595 304.947 129.749C305.206 129.902 305.42 130.134 305.591 130.443C305.761 130.753 305.847 131.168 305.847 131.688V136H304.841V135.114H304.79C304.722 135.256 304.608 135.408 304.449 135.57C304.29 135.732 304.078 135.869 303.814 135.983C303.55 136.097 303.227 136.153 302.847 136.153ZM303 135.25C303.398 135.25 303.733 135.172 304.006 135.016C304.281 134.859 304.489 134.658 304.628 134.411C304.77 134.163 304.841 133.903 304.841 133.631V132.71C304.798 132.761 304.705 132.808 304.56 132.851C304.418 132.891 304.253 132.926 304.065 132.957C303.881 132.986 303.7 133.011 303.524 133.034C303.351 133.054 303.21 133.071 303.102 133.085C302.841 133.119 302.597 133.175 302.369 133.251C302.145 133.325 301.963 133.437 301.824 133.588C301.688 133.736 301.619 133.937 301.619 134.193C301.619 134.543 301.749 134.807 302.007 134.986C302.268 135.162 302.599 135.25 303 135.25ZM307.682 136V129.455H308.688V132.301H309.353L311.705 129.455H313L310.358 132.608L313.034 136H311.739L309.591 133.239H308.688V136H307.682ZM316.602 136.136C315.972 136.136 315.428 135.997 314.97 135.719C314.516 135.438 314.165 135.045 313.918 134.543C313.673 134.037 313.551 133.449 313.551 132.778C313.551 132.108 313.673 131.517 313.918 131.006C314.165 130.491 314.509 130.091 314.949 129.804C315.392 129.514 315.909 129.369 316.5 129.369C316.841 129.369 317.178 129.426 317.51 129.54C317.842 129.653 318.145 129.838 318.418 130.094C318.69 130.347 318.908 130.682 319.07 131.099C319.232 131.517 319.312 132.031 319.312 132.642V133.068H314.267V132.199H318.29C318.29 131.83 318.216 131.5 318.068 131.21C317.923 130.92 317.716 130.692 317.446 130.524C317.179 130.357 316.864 130.273 316.5 130.273C316.099 130.273 315.753 130.372 315.46 130.571C315.17 130.767 314.947 131.023 314.791 131.338C314.635 131.653 314.557 131.991 314.557 132.352V132.932C314.557 133.426 314.642 133.845 314.812 134.189C314.986 134.53 315.226 134.79 315.533 134.969C315.839 135.145 316.196 135.233 316.602 135.233C316.866 135.233 317.105 135.196 317.318 135.122C317.534 135.045 317.72 134.932 317.876 134.781C318.033 134.628 318.153 134.437 318.239 134.21L319.21 134.483C319.108 134.812 318.936 135.102 318.695 135.352C318.453 135.599 318.155 135.793 317.8 135.932C317.445 136.068 317.045 136.136 316.602 136.136ZM325.223 132.267V133.205H321.609V132.267H325.223ZM321.848 129.455V136H320.842V129.455H321.848ZM325.99 129.455V136H324.984V129.455H325.99ZM327.128 137.875V135.062H327.673C327.807 134.923 327.922 134.773 328.018 134.611C328.115 134.449 328.199 134.257 328.27 134.036C328.344 133.811 328.406 133.538 328.457 133.217C328.509 132.893 328.554 132.503 328.594 132.045L328.815 129.455H332.974V135.062H333.98V137.875H332.974V136H328.134V137.875H327.128ZM328.815 135.062H331.969V130.392H329.753L329.582 132.045C329.511 132.73 329.423 133.328 329.318 133.839C329.213 134.351 329.045 134.759 328.815 135.062Z" fill="#D4D4D4"/>
<path d="M213.057 94V85.2727H216.006C216.69 85.2727 217.25 85.3963 217.685 85.6435C218.122 85.8878 218.446 86.2188 218.656 86.6364C218.866 87.054 218.972 87.5199 218.972 88.0341C218.972 88.5483 218.866 89.0156 218.656 89.4361C218.449 89.8565 218.128 90.1918 217.693 90.4418C217.259 90.6889 216.702 90.8125 216.023 90.8125H213.909V89.875H215.989C216.457 89.875 216.834 89.794 217.118 89.6321C217.402 89.4702 217.608 89.2514 217.736 88.9759C217.866 88.6974 217.932 88.3835 217.932 88.0341C217.932 87.6847 217.866 87.3722 217.736 87.0966C217.608 86.821 217.401 86.6051 217.114 86.4489C216.827 86.2898 216.446 86.2102 215.972 86.2102H214.114V94H213.057ZM228.038 89.6364C228.038 90.5568 227.871 91.3523 227.539 92.0227C227.207 92.6932 226.751 93.2102 226.171 93.5739C225.592 93.9375 224.93 94.1193 224.185 94.1193C223.441 94.1193 222.779 93.9375 222.2 93.5739C221.62 93.2102 221.164 92.6932 220.832 92.0227C220.499 91.3523 220.333 90.5568 220.333 89.6364C220.333 88.7159 220.499 87.9205 220.832 87.25C221.164 86.5795 221.62 86.0625 222.2 85.6989C222.779 85.3352 223.441 85.1534 224.185 85.1534C224.93 85.1534 225.592 85.3352 226.171 85.6989C226.751 86.0625 227.207 86.5795 227.539 87.25C227.871 87.9205 228.038 88.7159 228.038 89.6364ZM227.015 89.6364C227.015 88.8807 226.888 88.2429 226.636 87.723C226.386 87.2031 226.046 86.8097 225.617 86.5426C225.191 86.2756 224.714 86.142 224.185 86.142C223.657 86.142 223.178 86.2756 222.749 86.5426C222.323 86.8097 221.984 87.2031 221.731 87.723C221.481 88.2429 221.356 88.8807 221.356 89.6364C221.356 90.392 221.481 91.0298 221.731 91.5497C221.984 92.0696 222.323 92.4631 222.749 92.7301C223.178 92.9972 223.657 93.1307 224.185 93.1307C224.714 93.1307 225.191 92.9972 225.617 92.7301C226.046 92.4631 226.386 92.0696 226.636 91.5497C226.888 91.0298 227.015 90.392 227.015 89.6364ZM234.587 87.4545C234.536 87.0227 234.329 86.6875 233.965 86.4489C233.602 86.2102 233.156 86.0909 232.627 86.0909C232.241 86.0909 231.903 86.1534 231.613 86.2784C231.326 86.4034 231.102 86.5753 230.94 86.794C230.781 87.0128 230.701 87.2614 230.701 87.5398C230.701 87.7727 230.756 87.973 230.867 88.1406C230.981 88.3054 231.126 88.4432 231.302 88.554C231.478 88.6619 231.663 88.7514 231.856 88.8224C232.049 88.8906 232.227 88.946 232.388 88.9886L233.275 89.2273C233.502 89.2869 233.755 89.3693 234.033 89.4744C234.315 89.5795 234.583 89.723 234.839 89.9048C235.097 90.0838 235.31 90.3139 235.478 90.5952C235.646 90.8764 235.729 91.2216 235.729 91.6307C235.729 92.1023 235.606 92.5284 235.359 92.9091C235.114 93.2898 234.756 93.5923 234.285 93.8168C233.816 94.0412 233.246 94.1534 232.576 94.1534C231.951 94.1534 231.41 94.0526 230.952 93.8509C230.498 93.6491 230.14 93.3679 229.879 93.0071C229.62 92.6463 229.474 92.2273 229.44 91.75H230.531C230.559 92.0795 230.67 92.3523 230.863 92.5682C231.059 92.7812 231.306 92.9403 231.604 93.0455C231.906 93.1477 232.229 93.1989 232.576 93.1989C232.979 93.1989 233.342 93.1335 233.663 93.0028C233.984 92.8693 234.238 92.6847 234.425 92.4489C234.613 92.2102 234.707 91.9318 234.707 91.6136C234.707 91.3239 234.626 91.0881 234.464 90.9062C234.302 90.7244 234.089 90.5767 233.825 90.4631C233.56 90.3494 233.275 90.25 232.968 90.1648L231.894 89.858C231.212 89.6619 230.673 89.3821 230.275 89.0185C229.877 88.6548 229.678 88.179 229.678 87.5909C229.678 87.1023 229.81 86.6761 230.075 86.3125C230.342 85.946 230.7 85.6619 231.148 85.4602C231.6 85.2557 232.104 85.1534 232.661 85.1534C233.224 85.1534 233.724 85.2543 234.161 85.456C234.599 85.6548 234.945 85.9276 235.201 86.2741C235.46 86.6207 235.596 87.0142 235.61 87.4545H234.587ZM236.99 86.2102V85.2727H243.535V86.2102H240.791V94H239.734V86.2102H236.99ZM251.49 84.8636L248.678 95.3125H247.757L250.57 84.8636H251.49ZM254.608 94.1534C254.194 94.1534 253.817 94.0753 253.479 93.919C253.141 93.7599 252.873 93.5312 252.674 93.233C252.475 92.9318 252.375 92.5682 252.375 92.142C252.375 91.767 252.449 91.4631 252.597 91.2301C252.745 90.9943 252.942 90.8097 253.189 90.6761C253.436 90.5426 253.709 90.4432 254.007 90.3778C254.309 90.3097 254.611 90.2557 254.915 90.2159C255.313 90.1648 255.635 90.1264 255.882 90.1009C256.132 90.0724 256.314 90.0256 256.428 89.9602C256.544 89.8949 256.603 89.7812 256.603 89.6193V89.5852C256.603 89.1648 256.488 88.8381 256.257 88.6051C256.03 88.3722 255.685 88.2557 255.222 88.2557C254.742 88.2557 254.365 88.3608 254.093 88.571C253.82 88.7812 253.628 89.0057 253.517 89.2443L252.563 88.9034C252.733 88.5057 252.961 88.196 253.245 87.9744C253.532 87.75 253.844 87.5937 254.182 87.5057C254.523 87.4148 254.858 87.3693 255.188 87.3693C255.398 87.3693 255.64 87.3949 255.912 87.446C256.188 87.4943 256.453 87.5952 256.709 87.7486C256.968 87.902 257.182 88.1335 257.353 88.4432C257.523 88.7528 257.608 89.1676 257.608 89.6875V94H256.603V93.1136H256.551C256.483 93.2557 256.37 93.4077 256.211 93.5696C256.051 93.7315 255.84 93.8693 255.576 93.983C255.311 94.0966 254.989 94.1534 254.608 94.1534ZM254.762 93.25C255.159 93.25 255.495 93.1719 255.767 93.0156C256.043 92.8594 256.25 92.6577 256.39 92.4105C256.532 92.1634 256.603 91.9034 256.603 91.6307V90.7102C256.56 90.7614 256.466 90.8082 256.321 90.8509C256.179 90.8906 256.015 90.9261 255.827 90.9574C255.642 90.9858 255.462 91.0114 255.286 91.0341C255.113 91.054 254.972 91.071 254.864 91.0852C254.603 91.1193 254.358 91.1747 254.131 91.2514C253.907 91.3253 253.725 91.4375 253.586 91.5881C253.449 91.7358 253.381 91.9375 253.381 92.1932C253.381 92.5426 253.51 92.8068 253.769 92.9858C254.03 93.1619 254.361 93.25 254.762 93.25ZM262.103 94.1364C261.489 94.1364 260.961 93.9915 260.518 93.7017C260.075 93.4119 259.734 93.0128 259.495 92.5043C259.256 91.9957 259.137 91.4148 259.137 90.7614C259.137 90.0966 259.259 89.5099 259.504 89.0014C259.751 88.4901 260.094 88.0909 260.535 87.804C260.978 87.5142 261.495 87.3693 262.086 87.3693C262.546 87.3693 262.961 87.4545 263.33 87.625C263.7 87.7955 264.002 88.0341 264.238 88.3409C264.474 88.6477 264.62 89.0057 264.677 89.4148H263.671C263.594 89.1165 263.424 88.8523 263.16 88.6222C262.898 88.3892 262.546 88.2727 262.103 88.2727C261.711 88.2727 261.367 88.375 261.072 88.5795C260.779 88.7812 260.55 89.0668 260.386 89.4361C260.224 89.8026 260.143 90.233 260.143 90.7273C260.143 91.233 260.222 91.6733 260.381 92.0483C260.543 92.4233 260.771 92.7145 261.063 92.9219C261.359 93.1293 261.705 93.233 262.103 93.233C262.364 93.233 262.602 93.1875 262.815 93.0966C263.028 93.0057 263.208 92.875 263.356 92.7045C263.504 92.5341 263.609 92.3295 263.671 92.0909H264.677C264.62 92.4773 264.479 92.8253 264.255 93.1349C264.033 93.4418 263.739 93.6861 263.373 93.8679C263.009 94.0469 262.586 94.1364 262.103 94.1364ZM268.994 87.4545V88.3068H265.602V87.4545H268.994ZM266.59 85.8864H267.596V92.125C267.596 92.4091 267.637 92.6222 267.719 92.7642C267.805 92.9034 267.913 92.9972 268.043 93.0455C268.177 93.0909 268.317 93.1136 268.465 93.1136C268.576 93.1136 268.667 93.108 268.738 93.0966C268.809 93.0824 268.866 93.071 268.908 93.0625L269.113 93.9659C269.045 93.9915 268.95 94.017 268.827 94.0426C268.705 94.071 268.55 94.0852 268.363 94.0852C268.079 94.0852 267.8 94.0241 267.528 93.902C267.258 93.7798 267.033 93.5938 266.854 93.3438C266.678 93.0938 266.59 92.7784 266.59 92.3977V85.8864ZM270.506 94V87.4545H271.512V94H270.506ZM271.018 86.3636C270.822 86.3636 270.653 86.2969 270.511 86.1634C270.371 86.0298 270.302 85.8693 270.302 85.6818C270.302 85.4943 270.371 85.3338 270.511 85.2003C270.653 85.0668 270.822 85 271.018 85C271.214 85 271.381 85.0668 271.521 85.2003C271.663 85.3338 271.734 85.4943 271.734 85.6818C271.734 85.8693 271.663 86.0298 271.521 86.1634C271.381 86.2969 271.214 86.3636 271.018 86.3636ZM276.013 94.1364C275.422 94.1364 274.904 93.9957 274.458 93.7145C274.015 93.4332 273.668 93.0398 273.418 92.5341C273.171 92.0284 273.047 91.4375 273.047 90.7614C273.047 90.0795 273.171 89.4844 273.418 88.9759C273.668 88.4673 274.015 88.0724 274.458 87.7912C274.904 87.5099 275.422 87.3693 276.013 87.3693C276.604 87.3693 277.121 87.5099 277.564 87.7912C278.01 88.0724 278.357 88.4673 278.604 88.9759C278.854 89.4844 278.979 90.0795 278.979 90.7614C278.979 91.4375 278.854 92.0284 278.604 92.5341C278.357 93.0398 278.01 93.4332 277.564 93.7145C277.121 93.9957 276.604 94.1364 276.013 94.1364ZM276.013 93.233C276.462 93.233 276.831 93.1179 277.121 92.8878C277.411 92.6577 277.625 92.3551 277.765 91.9801C277.904 91.6051 277.973 91.1989 277.973 90.7614C277.973 90.3239 277.904 89.9162 277.765 89.5384C277.625 89.1605 277.411 88.8551 277.121 88.6222C276.831 88.3892 276.462 88.2727 276.013 88.2727C275.564 88.2727 275.195 88.3892 274.905 88.6222C274.615 88.8551 274.401 89.1605 274.262 89.5384C274.123 89.9162 274.053 90.3239 274.053 90.7614C274.053 91.1989 274.123 91.6051 274.262 91.9801C274.401 92.3551 274.615 92.6577 274.905 92.8878C275.195 93.1179 275.564 93.233 276.013 93.233ZM281.52 90.0625V94H280.514V87.4545H281.486V88.4773H281.571C281.724 88.1449 281.957 87.8778 282.27 87.6761C282.582 87.4716 282.986 87.3693 283.48 87.3693C283.923 87.3693 284.311 87.4602 284.643 87.642C284.976 87.821 285.234 88.0938 285.419 88.4602C285.604 88.8239 285.696 89.2841 285.696 89.8409V94H284.69V89.9091C284.69 89.3949 284.557 88.9943 284.29 88.7074C284.023 88.4176 283.656 88.2727 283.19 88.2727C282.869 88.2727 282.582 88.3423 282.33 88.4815C282.08 88.6207 281.882 88.8239 281.737 89.0909C281.592 89.358 281.52 89.6818 281.52 90.0625ZM214.642 111L212.256 102.273H213.33L215.153 109.381H215.239L217.097 102.273H218.29L220.148 109.381H220.233L222.057 102.273H223.131L220.744 111H219.653L217.727 104.045H217.659L215.733 111H214.642ZM229.22 104.455C229.169 104.023 228.962 103.688 228.598 103.449C228.234 103.21 227.788 103.091 227.26 103.091C226.874 103.091 226.536 103.153 226.246 103.278C225.959 103.403 225.734 103.575 225.572 103.794C225.413 104.013 225.334 104.261 225.334 104.54C225.334 104.773 225.389 104.973 225.5 105.141C225.614 105.305 225.759 105.443 225.935 105.554C226.111 105.662 226.295 105.751 226.489 105.822C226.682 105.891 226.859 105.946 227.021 105.989L227.908 106.227C228.135 106.287 228.388 106.369 228.666 106.474C228.947 106.58 229.216 106.723 229.472 106.905C229.73 107.084 229.943 107.314 230.111 107.595C230.278 107.876 230.362 108.222 230.362 108.631C230.362 109.102 230.239 109.528 229.991 109.909C229.747 110.29 229.389 110.592 228.918 110.817C228.449 111.041 227.879 111.153 227.209 111.153C226.584 111.153 226.043 111.053 225.585 110.851C225.131 110.649 224.773 110.368 224.511 110.007C224.253 109.646 224.107 109.227 224.072 108.75H225.163C225.192 109.08 225.303 109.352 225.496 109.568C225.692 109.781 225.939 109.94 226.237 110.045C226.538 110.148 226.862 110.199 227.209 110.199C227.612 110.199 227.974 110.134 228.295 110.003C228.616 109.869 228.871 109.685 229.058 109.449C229.246 109.21 229.339 108.932 229.339 108.614C229.339 108.324 229.259 108.088 229.097 107.906C228.935 107.724 228.722 107.577 228.457 107.463C228.193 107.349 227.908 107.25 227.601 107.165L226.527 106.858C225.845 106.662 225.305 106.382 224.908 106.018C224.51 105.655 224.311 105.179 224.311 104.591C224.311 104.102 224.443 103.676 224.707 103.312C224.974 102.946 225.332 102.662 225.781 102.46C226.233 102.256 226.737 102.153 227.294 102.153C227.857 102.153 228.357 102.254 228.794 102.456C229.232 102.655 229.578 102.928 229.834 103.274C230.092 103.621 230.229 104.014 230.243 104.455H229.22ZM238.424 101.864L235.611 112.312H234.691L237.503 101.864H238.424ZM241.099 111L239.104 104.455H240.161L241.576 109.466H241.644L243.042 104.455H244.116L245.496 109.449H245.565L246.979 104.455H248.036L246.042 111H245.053L243.621 105.972H243.519L242.087 111H241.099ZM254.002 105.92L253.099 106.176C253.042 106.026 252.958 105.879 252.847 105.737C252.739 105.592 252.592 105.473 252.404 105.379C252.217 105.286 251.977 105.239 251.684 105.239C251.283 105.239 250.95 105.331 250.683 105.516C250.418 105.697 250.286 105.929 250.286 106.21C250.286 106.46 250.377 106.658 250.559 106.803C250.741 106.947 251.025 107.068 251.411 107.165L252.383 107.403C252.968 107.545 253.404 107.763 253.691 108.055C253.978 108.345 254.121 108.719 254.121 109.176C254.121 109.551 254.013 109.886 253.798 110.182C253.585 110.477 253.286 110.71 252.903 110.881C252.519 111.051 252.073 111.136 251.565 111.136C250.897 111.136 250.344 110.991 249.907 110.702C249.469 110.412 249.192 109.989 249.076 109.432L250.031 109.193C250.121 109.545 250.293 109.81 250.546 109.986C250.802 110.162 251.136 110.25 251.548 110.25C252.016 110.25 252.388 110.151 252.664 109.952C252.942 109.75 253.082 109.509 253.082 109.227C253.082 109 253.002 108.81 252.843 108.656C252.684 108.5 252.44 108.384 252.11 108.307L251.019 108.051C250.42 107.909 249.979 107.689 249.698 107.391C249.42 107.089 249.281 106.713 249.281 106.261C249.281 105.892 249.384 105.565 249.592 105.281C249.802 104.997 250.087 104.774 250.448 104.612C250.812 104.45 251.224 104.369 251.684 104.369C252.332 104.369 252.84 104.511 253.21 104.795C253.582 105.08 253.846 105.455 254.002 105.92ZM258.721 101.864L255.908 112.312H254.988L257.8 101.864H258.721ZM259.913 111V104.455H260.884V105.477H260.969C261.106 105.128 261.326 104.857 261.63 104.663C261.934 104.467 262.299 104.369 262.725 104.369C263.157 104.369 263.516 104.467 263.803 104.663C264.093 104.857 264.319 105.128 264.481 105.477H264.549C264.717 105.139 264.968 104.871 265.303 104.672C265.638 104.47 266.04 104.369 266.509 104.369C267.094 104.369 267.573 104.553 267.945 104.919C268.317 105.283 268.504 105.849 268.504 106.619V111H267.498V106.619C267.498 106.136 267.366 105.791 267.102 105.584C266.837 105.376 266.526 105.273 266.168 105.273C265.708 105.273 265.352 105.412 265.099 105.69C264.846 105.966 264.719 106.315 264.719 106.739V111H263.697V106.517C263.697 106.145 263.576 105.845 263.335 105.618C263.093 105.388 262.782 105.273 262.401 105.273C262.14 105.273 261.896 105.342 261.668 105.482C261.444 105.621 261.262 105.814 261.123 106.061C260.987 106.305 260.918 106.588 260.918 106.909V111H259.913ZM273.087 111.136C272.456 111.136 271.912 110.997 271.455 110.719C271 110.438 270.649 110.045 270.402 109.543C270.158 109.037 270.036 108.449 270.036 107.778C270.036 107.108 270.158 106.517 270.402 106.006C270.649 105.491 270.993 105.091 271.433 104.804C271.876 104.514 272.393 104.369 272.984 104.369C273.325 104.369 273.662 104.426 273.994 104.54C274.327 104.653 274.629 104.838 274.902 105.094C275.175 105.347 275.392 105.682 275.554 106.099C275.716 106.517 275.797 107.031 275.797 107.642V108.068H270.751V107.199H274.774C274.774 106.83 274.7 106.5 274.553 106.21C274.408 105.92 274.2 105.692 273.93 105.524C273.663 105.357 273.348 105.273 272.984 105.273C272.584 105.273 272.237 105.372 271.945 105.571C271.655 105.767 271.432 106.023 271.276 106.338C271.119 106.653 271.041 106.991 271.041 107.352V107.932C271.041 108.426 271.126 108.845 271.297 109.189C271.47 109.53 271.71 109.79 272.017 109.969C272.324 110.145 272.68 110.233 273.087 110.233C273.351 110.233 273.589 110.196 273.803 110.122C274.018 110.045 274.205 109.932 274.361 109.781C274.517 109.628 274.638 109.437 274.723 109.21L275.695 109.483C275.592 109.812 275.42 110.102 275.179 110.352C274.938 110.599 274.639 110.793 274.284 110.932C273.929 111.068 273.53 111.136 273.087 111.136ZM280.173 104.455V105.307H276.781V104.455H280.173ZM277.77 102.886H278.776V109.125C278.776 109.409 278.817 109.622 278.899 109.764C278.984 109.903 279.092 109.997 279.223 110.045C279.357 110.091 279.497 110.114 279.645 110.114C279.756 110.114 279.847 110.108 279.918 110.097C279.989 110.082 280.045 110.071 280.088 110.062L280.293 110.966C280.224 110.991 280.129 111.017 280.007 111.043C279.885 111.071 279.73 111.085 279.543 111.085C279.259 111.085 278.98 111.024 278.707 110.902C278.438 110.78 278.213 110.594 278.034 110.344C277.858 110.094 277.77 109.778 277.77 109.398V102.886ZM281.686 111V104.455H282.658V105.443H282.726C282.845 105.119 283.061 104.857 283.374 104.655C283.686 104.453 284.038 104.352 284.43 104.352C284.504 104.352 284.597 104.354 284.707 104.357C284.818 104.359 284.902 104.364 284.959 104.369V105.392C284.925 105.384 284.847 105.371 284.724 105.354C284.605 105.334 284.479 105.324 284.345 105.324C284.027 105.324 283.743 105.391 283.493 105.524C283.246 105.655 283.05 105.837 282.905 106.07C282.763 106.3 282.692 106.562 282.692 106.858V111H281.686ZM286.151 111V104.455H287.157V111H286.151ZM286.662 103.364C286.466 103.364 286.297 103.297 286.155 103.163C286.016 103.03 285.946 102.869 285.946 102.682C285.946 102.494 286.016 102.334 286.155 102.2C286.297 102.067 286.466 102 286.662 102C286.858 102 287.026 102.067 287.165 102.2C287.307 102.334 287.378 102.494 287.378 102.682C287.378 102.869 287.307 103.03 287.165 103.163C287.026 103.297 286.858 103.364 286.662 103.364ZM291.658 111.136C291.044 111.136 290.516 110.991 290.072 110.702C289.629 110.412 289.288 110.013 289.05 109.504C288.811 108.996 288.692 108.415 288.692 107.761C288.692 107.097 288.814 106.51 289.058 106.001C289.305 105.49 289.649 105.091 290.089 104.804C290.533 104.514 291.05 104.369 291.641 104.369C292.101 104.369 292.516 104.455 292.885 104.625C293.254 104.795 293.557 105.034 293.793 105.341C294.028 105.648 294.175 106.006 294.232 106.415H293.226C293.149 106.116 292.979 105.852 292.714 105.622C292.453 105.389 292.101 105.273 291.658 105.273C291.266 105.273 290.922 105.375 290.626 105.58C290.334 105.781 290.105 106.067 289.94 106.436C289.778 106.803 289.697 107.233 289.697 107.727C289.697 108.233 289.777 108.673 289.936 109.048C290.098 109.423 290.325 109.714 290.618 109.922C290.913 110.129 291.26 110.233 291.658 110.233C291.919 110.233 292.156 110.188 292.369 110.097C292.582 110.006 292.763 109.875 292.911 109.705C293.058 109.534 293.163 109.33 293.226 109.091H294.232C294.175 109.477 294.034 109.825 293.81 110.135C293.588 110.442 293.294 110.686 292.928 110.868C292.564 111.047 292.141 111.136 291.658 111.136ZM300.338 105.92L299.435 106.176C299.378 106.026 299.294 105.879 299.183 105.737C299.075 105.592 298.928 105.473 298.74 105.379C298.553 105.286 298.312 105.239 298.02 105.239C297.619 105.239 297.286 105.331 297.018 105.516C296.754 105.697 296.622 105.929 296.622 106.21C296.622 106.46 296.713 106.658 296.895 106.803C297.077 106.947 297.361 107.068 297.747 107.165L298.719 107.403C299.304 107.545 299.74 107.763 300.027 108.055C300.314 108.345 300.457 108.719 300.457 109.176C300.457 109.551 300.349 109.886 300.134 110.182C299.92 110.477 299.622 110.71 299.239 110.881C298.855 111.051 298.409 111.136 297.901 111.136C297.233 111.136 296.68 110.991 296.243 110.702C295.805 110.412 295.528 109.989 295.412 109.432L296.366 109.193C296.457 109.545 296.629 109.81 296.882 109.986C297.138 110.162 297.472 110.25 297.884 110.25C298.352 110.25 298.724 110.151 299 109.952C299.278 109.75 299.418 109.509 299.418 109.227C299.418 109 299.338 108.81 299.179 108.656C299.02 108.5 298.776 108.384 298.446 108.307L297.355 108.051C296.756 107.909 296.315 107.689 296.034 107.391C295.756 107.089 295.616 106.713 295.616 106.261C295.616 105.892 295.72 105.565 295.928 105.281C296.138 104.997 296.423 104.774 296.784 104.612C297.148 104.45 297.56 104.369 298.02 104.369C298.668 104.369 299.176 104.511 299.545 104.795C299.918 105.08 300.182 105.455 300.338 105.92Z" fill="#D4D4D4"/>
<path d="M223 59V57C223 54.2386 220.761 52 218 52C215.239 52 213 54.2386 213 57V59M218 63.5V65.5M214.8 70H221.2C222.88 70 223.72 70 224.362 69.673C224.926 69.3854 225.385 68.9265 225.673 68.362C226 67.7202 226 66.8802 226 65.2V63.8C226 62.1198 226 61.2798 225.673 60.638C225.385 60.0735 224.926 59.6146 224.362 59.327C223.72 59 222.88 59 221.2 59H214.8C213.12 59 212.28 59 211.638 59.327C211.074 59.6146 210.615 60.0735 210.327 60.638C210 61.2798 210 62.1198 210 63.8V65.2C210 66.8802 210 67.7202 210.327 68.362C210.615 68.9265 211.074 69.3854 211.638 69.673C212.28 70 213.12 70 214.8 70Z" stroke="#D4D4D4" stroke-width="2" stroke-linecap="round" stroke-linejoin="round"/>
<path d="M231.568 56.2727L233.818 59.9034H233.886L236.136 56.2727H237.381L234.636 60.6364L237.381 65H236.136L233.886 61.4375H233.818L231.568 65H230.324L233.136 60.6364L230.324 56.2727H231.568ZM241.549 60.1676V61.1051H237.731V60.1676H241.549ZM243.813 65H242.705L245.91 56.2727H247.001L250.205 65H249.097L246.489 57.6534H246.421L243.813 65ZM244.222 61.5909H248.688V62.5284H244.222V61.5909ZM251.428 67.4545V58.4545H252.4V59.4943H252.519C252.593 59.3807 252.695 59.2358 252.826 59.0597C252.96 58.8807 253.15 58.7216 253.397 58.5824C253.647 58.4403 253.985 58.3693 254.411 58.3693C254.962 58.3693 255.448 58.5071 255.869 58.7827C256.289 59.0582 256.617 59.4489 256.853 59.9545C257.089 60.4602 257.207 61.0568 257.207 61.7443C257.207 62.4375 257.089 63.0384 256.853 63.5469C256.617 64.0526 256.29 64.4446 255.873 64.723C255.455 64.9986 254.974 65.1364 254.428 65.1364C254.008 65.1364 253.671 65.0668 253.418 64.9276C253.165 64.7855 252.971 64.625 252.835 64.446C252.698 64.2642 252.593 64.1136 252.519 63.9943H252.434V67.4545H251.428ZM252.417 61.7273C252.417 62.2216 252.489 62.6577 252.634 63.0355C252.779 63.4105 252.991 63.7045 253.269 63.9176C253.548 64.1278 253.888 64.233 254.292 64.233C254.712 64.233 255.063 64.1222 255.344 63.9006C255.629 63.6761 255.842 63.375 255.984 62.9972C256.129 62.6165 256.201 62.1932 256.201 61.7273C256.201 61.267 256.13 60.8523 255.988 60.483C255.849 60.1108 255.637 59.8168 255.353 59.6009C255.072 59.3821 254.718 59.2727 254.292 59.2727C253.883 59.2727 253.539 59.3764 253.261 59.5838C252.982 59.7884 252.772 60.0753 252.63 60.4446C252.488 60.8111 252.417 61.2386 252.417 61.7273ZM258.741 65V58.4545H259.746V65H258.741ZM259.252 57.3636C259.056 57.3636 258.887 57.2969 258.745 57.1634C258.606 57.0298 258.536 56.8693 258.536 56.6818C258.536 56.4943 258.606 56.3338 258.745 56.2003C258.887 56.0668 259.056 56 259.252 56C259.448 56 259.616 56.0668 259.755 56.2003C259.897 56.3338 259.968 56.4943 259.968 56.6818C259.968 56.8693 259.897 57.0298 259.755 57.1634C259.616 57.2969 259.448 57.3636 259.252 57.3636ZM265.338 60.7898V61.7273H261.52V60.7898H265.338ZM267.244 65V56.2727H268.301V60.6023H268.403L272.324 56.2727H273.705L270.04 60.2102L273.705 65H272.426L269.392 60.9432L268.301 62.1705V65H267.244ZM277.2 65.1364C276.569 65.1364 276.025 64.9972 275.568 64.7188C275.113 64.4375 274.762 64.0455 274.515 63.5426C274.271 63.0369 274.149 62.4489 274.149 61.7784C274.149 61.108 274.271 60.517 274.515 60.0057C274.762 59.4915 275.106 59.0909 275.547 58.804C275.99 58.5142 276.507 58.3693 277.098 58.3693C277.439 58.3693 277.775 58.4261 278.108 58.5398C278.44 58.6534 278.743 58.8381 279.015 59.0938C279.288 59.3466 279.505 59.6818 279.667 60.0994C279.829 60.517 279.91 61.0312 279.91 61.642V62.0682H274.865V61.1989H278.887C278.887 60.8295 278.814 60.5 278.666 60.2102C278.521 59.9205 278.314 59.6918 278.044 59.5241C277.777 59.3565 277.461 59.2727 277.098 59.2727C276.697 59.2727 276.35 59.3722 276.058 59.571C275.768 59.767 275.545 60.0227 275.389 60.3381C275.233 60.6534 275.154 60.9915 275.154 61.3523V61.9318C275.154 62.4261 275.24 62.8452 275.41 63.1889C275.583 63.5298 275.824 63.7898 276.13 63.9688C276.437 64.1449 276.794 64.233 277.2 64.233C277.464 64.233 277.703 64.196 277.916 64.1222C278.132 64.0455 278.318 63.9318 278.474 63.7812C278.63 63.6278 278.751 63.4375 278.836 63.2102L279.808 63.483C279.706 63.8125 279.534 64.1023 279.292 64.3523C279.051 64.5994 278.752 64.7926 278.397 64.9318C278.042 65.0682 277.643 65.1364 277.2 65.1364ZM281.888 67.4545C281.718 67.4545 281.566 67.4403 281.433 67.4119C281.299 67.3864 281.207 67.3608 281.156 67.3352L281.411 66.4489C281.656 66.5114 281.871 66.5341 282.059 66.517C282.246 66.5 282.413 66.4162 282.558 66.2656C282.705 66.1179 282.84 65.8778 282.962 65.5455L283.15 65.0341L280.729 58.4545H281.82L283.627 63.6705H283.695L285.502 58.4545H286.593L283.815 65.9545C283.69 66.2926 283.535 66.5724 283.35 66.794C283.165 67.0185 282.951 67.1847 282.707 67.2926C282.465 67.4006 282.192 67.4545 281.888 67.4545Z" fill="#D4D4D4"/>
</svg>
